<svg width="10" height="10" viewBox="0 0 10 10" fill="none" xmlns="http://www.w3.org/2000/svg">
  <path d="M5.00013 3.66659C4.35346 3.66659 3.8335 4.18655 3.8335 4.83322C3.8335 5.47989 4.35346 5.99984 5.00013 5.99984C5.6468 5.99984 6.16675 5.47989 6.16675 4.83322C6.16675 4.18655 5.6468 3.66659 5.00013 3.66659ZM5.00013 5.33317C4.72346 5.33317 4.50016 5.10988 4.50016 4.83322C4.50016 4.55655 4.72346 4.33326 5.00013 4.33326C5.2768 4.33326 5.50009 4.55655 5.50009 4.83322C5.50009 5.10988 5.2768 5.33317 5.00013 5.33317ZM6.7468 3.59992C6.7468 3.73659 6.6368 3.84659 6.50013 3.84659C6.36346 3.84659 6.25346 3.73659 6.25346 3.59992C6.25346 3.46325 6.36346 3.35325 6.50013 3.35325C6.6368 3.35325 6.7468 3.46325 6.7468 3.59992ZM7.32679 3.84659C7.32679 4.26659 7.32679 4.68326 7.31012 5.10326C7.29346 5.57326 7.18679 6.00326 6.81346 6.37659C6.44013 6.74993 6.01346 6.85659 5.54346 6.87326C5.12346 6.88993 4.70679 6.88993 4.28679 6.88993C3.86679 6.88993 3.45013 6.88993 3.03013 6.87326C2.56013 6.85659 2.13013 6.74993 1.7568 6.37659C1.38346 6.00326 1.2768 5.57326 1.26013 5.10326C1.24346 4.68326 1.24346 4.26659 1.24346 3.84659C1.24346 3.42659 1.24346 3.00993 1.26013 2.58993C1.2768 2.11993 1.38346 1.68993 1.7568 1.31659C2.13013 0.943259 2.56013 0.836592 3.03013 0.819925C3.45013 0.803259 3.86679 0.803259 4.28679 0.803259C4.70679 0.803259 5.12346 0.803259 5.54346 0.819925C6.01346 0.836592 6.44346 0.943259 6.81679 1.31659C7.19013 1.68993 7.29679 2.11659 7.31346 2.58659C7.33013 3.00659 7.33013 3.42325 7.32679 3.84325V3.84659ZM6.65346 5.08326C6.71013 4.68659 6.71013 4.26326 6.68679 3.85326C6.67013 3.53659 6.60346 3.29993 6.43346 3.12993C6.26346 2.95993 6.0268 2.89326 5.71013 2.87659C5.30013 2.85326 4.87679 2.85326 4.48013 2.89659C4.16346 2.91326 3.9268 2.97993 3.7568 3.14993C3.5868 3.31993 3.52013 3.55659 3.50346 3.87326C3.48013 4.28326 3.48013 4.70659 3.52346 5.10326C3.54013 5.41993 3.60679 5.65659 3.77679 5.82659C3.94679 5.99659 4.18346 6.06326 4.50013 6.07993C4.91013 6.10326 5.33346 6.10326 5.73013 6.05993C6.04679 6.04326 6.28346 5.97659 6.45346 5.80659C6.62346 5.63659 6.69013 5.39993 6.70679 5.08326H6.65346Z" fill="white" />
</svg>
