<svg width="12" height="12" viewBox="0 0 12 12" fill="none" xmlns="http://www.w3.org/2000/svg">
  <path d="M2.68576 3.99935H0.333008V11.666H2.68576V3.99935Z" fill="white"/>
  <path d="M1.50879 2.91602C2.23554 2.91602 2.82421 2.32735 2.82421 1.60059C2.82421 0.873828 2.23554 0.285156 1.50879 0.285156C0.782029 0.285156 0.193359 0.873828 0.193359 1.60059C0.193359 2.32735 0.782029 2.91602 1.50879 2.91602Z" fill="white"/>
  <path d="M6.52539 7.54232C6.52539 6.59315 6.99289 5.93398 7.94873 5.93398C8.84706 5.93398 9.27956 6.53398 9.27956 7.54232V11.666H11.6329V6.85065C11.6329 4.80315 10.4554 3.80732 8.87623 3.80732C7.60456 3.80732 7.05623 4.48398 6.71956 4.95232V3.99982H4.36621V11.6668H6.71956L6.52539 7.54232Z" fill="white"/>
</svg>
